<svg xmlns="http://www.w3.org/2000/svg" width="1024" height="1024"><path d="M506.127 16.268c-15.767 4.556-20.929 19.347-22.985 33.971-4.135 29.398-7.326 58.882-12.6 88.112-16.476 91.317-59.07 188.42-41.496 282.566 9.381 50.259 47.78 98.913 104.426 84.347 43.95-11.302 65.333-58.81 73.528-99.539 18.042-89.669 6.264-195.135-18.624-282.566-8.714-30.612-21.228-63.284-41.627-88.106-9.927-12.08-23.837-23.636-40.622-18.785M282.81 93.58c-32.822 7.521-56.977 54.137-71.865 81.231-47.603 86.628-66.208 187.055-44.465 284.085 12.611 56.28 52.7 119.949 119.368 103.457 52.144-12.898 71.976-62.267 71.396-111.053-1.039-87.269-56.477-163.519-50.263-252.182 1.774-25.306 12.382-57.151 8.289-82.035-2.659-16.163-15.873-27.304-32.46-23.503m457.27 7.64c-13.524 3.542-19.732 16.546-19.737 29.535-.014 36.26 6.526 71.38 4.492 107.861-4.713 84.537-63.074 157.762-52.683 244.587 5.987 50.031 53.03 95.339 105.908 84.057 43.367-9.252 67.002-57.096 76.91-96.21 22.285-87.989 11.569-187.531-25.048-270.413-12.693-28.73-27.9-56.569-48.45-80.494-9.986-11.626-25.022-23.212-41.391-18.924M477.263 550.691c-131.192 17.276-262.837 106.222-300.581 237.865-18.595 64.854-18.556 141.519 39.284 186.836 87.87 68.847 214.819 9.757 314.468 12.198 69.45 1.701 134.843 27.738 205.088 17.774 16.616-2.357 33.624-7.64 48.614-15.135 96.632-48.317 86.501-166.217 45.2-248.767-59.882-119.686-217.405-208.505-352.073-190.77Z" style="fill:#3d2f1b;stroke:none;stroke-width:1.519;stroke-dasharray:none;fill-opacity:1"/></svg>